<svg width="264" height="65" viewBox="0 0 264 65" fill="none" xmlns="http://www.w3.org/2000/svg">
<path d="M0 17C0 7.61116 7.61116 0 17 0H48C57.3888 0 65 7.61116 65 17V48C65 57.3888 57.3888 65 48 65H17C7.61116 65 0 57.3888 0 48V17Z" fill="black"/>
<path d="M86.264 24.2C87.752 24.2 89.04 24.448 90.128 24.944C91.232 25.44 92.08 26.144 92.672 27.056C93.264 27.968 93.56 29.048 93.56 30.296C93.56 31.528 93.264 32.608 92.672 33.536C92.08 34.448 91.232 35.152 90.128 35.648C89.04 36.128 87.752 36.368 86.264 36.368H82.88V41H78.992V24.2H86.264ZM86.048 33.2C87.216 33.2 88.104 32.952 88.712 32.456C89.32 31.944 89.624 31.224 89.624 30.296C89.624 29.352 89.32 28.632 88.712 28.136C88.104 27.624 87.216 27.368 86.048 27.368H82.88V33.2H86.048ZM101.163 27.896C103.163 27.896 104.699 28.376 105.771 29.336C106.843 30.28 107.379 31.712 107.379 33.632V41H103.875V39.392C103.171 40.592 101.859 41.192 99.9386 41.192C98.9466 41.192 98.0826 41.024 97.3466 40.688C96.6266 40.352 96.0746 39.888 95.6906 39.296C95.3066 38.704 95.1146 38.032 95.1146 37.28C95.1146 36.08 95.5626 35.136 96.4586 34.448C97.3706 33.76 98.7706 33.416 100.659 33.416H103.635C103.635 32.6 103.387 31.976 102.891 31.544C102.395 31.096 101.651 30.872 100.659 30.872C99.9706 30.872 99.2906 30.984 98.6186 31.208C97.9626 31.416 97.4026 31.704 96.9386 32.072L95.5946 29.456C96.2986 28.96 97.1386 28.576 98.1146 28.304C99.1066 28.032 100.123 27.896 101.163 27.896ZM100.875 38.672C101.515 38.672 102.083 38.528 102.579 38.24C103.075 37.936 103.427 37.496 103.635 36.92V35.6H101.067C99.5306 35.6 98.7626 36.104 98.7626 37.112C98.7626 37.592 98.9466 37.976 99.3146 38.264C99.6986 38.536 100.219 38.672 100.875 38.672ZM115.111 41.192C114.039 41.192 112.991 41.064 111.967 40.808C110.943 40.536 110.127 40.2 109.519 39.8L110.767 37.112C111.343 37.48 112.039 37.784 112.855 38.024C113.671 38.248 114.471 38.36 115.255 38.36C116.839 38.36 117.631 37.968 117.631 37.184C117.631 36.816 117.415 36.552 116.983 36.392C116.551 36.232 115.887 36.096 114.991 35.984C113.935 35.824 113.063 35.64 112.375 35.432C111.687 35.224 111.087 34.856 110.575 34.328C110.079 33.8 109.831 33.048 109.831 32.072C109.831 31.256 110.063 30.536 110.527 29.912C111.007 29.272 111.695 28.776 112.591 28.424C113.503 28.072 114.575 27.896 115.807 27.896C116.719 27.896 117.623 28 118.519 28.208C119.431 28.4 120.183 28.672 120.775 29.024L119.527 31.688C118.391 31.048 117.151 30.728 115.807 30.728C115.007 30.728 114.407 30.84 114.007 31.064C113.607 31.288 113.407 31.576 113.407 31.928C113.407 32.328 113.623 32.608 114.055 32.768C114.487 32.928 115.175 33.08 116.119 33.224C117.175 33.4 118.039 33.592 118.711 33.8C119.383 33.992 119.967 34.352 120.463 34.88C120.959 35.408 121.207 36.144 121.207 37.088C121.207 37.888 120.967 38.6 120.487 39.224C120.007 39.848 119.303 40.336 118.375 40.688C117.463 41.024 116.375 41.192 115.111 41.192ZM127.861 41.192C126.789 41.192 125.741 41.064 124.717 40.808C123.693 40.536 122.877 40.2 122.269 39.8L123.517 37.112C124.093 37.48 124.789 37.784 125.605 38.024C126.421 38.248 127.221 38.36 128.005 38.36C129.589 38.36 130.381 37.968 130.381 37.184C130.381 36.816 130.165 36.552 129.733 36.392C129.301 36.232 128.637 36.096 127.741 35.984C126.685 35.824 125.813 35.64 125.125 35.432C124.437 35.224 123.837 34.856 123.325 34.328C122.829 33.8 122.581 33.048 122.581 32.072C122.581 31.256 122.813 30.536 123.277 29.912C123.757 29.272 124.445 28.776 125.341 28.424C126.253 28.072 127.325 27.896 128.557 27.896C129.469 27.896 130.373 28 131.269 28.208C132.181 28.4 132.933 28.672 133.525 29.024L132.277 31.688C131.141 31.048 129.901 30.728 128.557 30.728C127.757 30.728 127.157 30.84 126.757 31.064C126.357 31.288 126.157 31.576 126.157 31.928C126.157 32.328 126.373 32.608 126.805 32.768C127.237 32.928 127.925 33.08 128.869 33.224C129.925 33.4 130.789 33.592 131.461 33.8C132.133 33.992 132.717 34.352 133.213 34.88C133.709 35.408 133.957 36.144 133.957 37.088C133.957 37.888 133.717 38.6 133.237 39.224C132.757 39.848 132.053 40.336 131.125 40.688C130.213 41.024 129.125 41.192 127.861 41.192ZM141.475 27.896C143.475 27.896 145.011 28.376 146.083 29.336C147.155 30.28 147.691 31.712 147.691 33.632V41H144.187V39.392C143.483 40.592 142.171 41.192 140.251 41.192C139.259 41.192 138.395 41.024 137.659 40.688C136.939 40.352 136.387 39.888 136.003 39.296C135.619 38.704 135.427 38.032 135.427 37.28C135.427 36.08 135.875 35.136 136.771 34.448C137.683 33.76 139.083 33.416 140.971 33.416H143.947C143.947 32.6 143.699 31.976 143.203 31.544C142.707 31.096 141.963 30.872 140.971 30.872C140.283 30.872 139.603 30.984 138.931 31.208C138.275 31.416 137.715 31.704 137.251 32.072L135.907 29.456C136.611 28.96 137.451 28.576 138.427 28.304C139.419 28.032 140.435 27.896 141.475 27.896ZM141.187 38.672C141.827 38.672 142.395 38.528 142.891 38.24C143.387 37.936 143.739 37.496 143.947 36.92V35.6H141.379C139.843 35.6 139.075 36.104 139.075 37.112C139.075 37.592 139.259 37.976 139.627 38.264C140.011 38.536 140.531 38.672 141.187 38.672ZM164.54 28.088V38.84C164.54 41.208 163.924 42.968 162.692 44.12C161.46 45.272 159.66 45.848 157.292 45.848C156.044 45.848 154.86 45.696 153.74 45.392C152.62 45.088 151.692 44.648 150.956 44.072L152.444 41.384C152.988 41.832 153.676 42.184 154.508 42.44C155.34 42.712 156.172 42.848 157.004 42.848C158.3 42.848 159.252 42.552 159.86 41.96C160.484 41.384 160.796 40.504 160.796 39.32V38.768C159.82 39.84 158.46 40.376 156.716 40.376C155.532 40.376 154.444 40.12 153.452 39.608C152.476 39.08 151.7 38.344 151.124 37.4C150.548 36.456 150.26 35.368 150.26 34.136C150.26 32.904 150.548 31.816 151.124 30.872C151.7 29.928 152.476 29.2 153.452 28.688C154.444 28.16 155.532 27.896 156.716 27.896C158.588 27.896 160.012 28.512 160.988 29.744V28.088H164.54ZM157.46 37.304C158.452 37.304 159.26 37.016 159.884 36.44C160.524 35.848 160.844 35.08 160.844 34.136C160.844 33.192 160.524 32.432 159.884 31.856C159.26 31.264 158.452 30.968 157.46 30.968C156.468 30.968 155.652 31.264 155.012 31.856C154.372 32.432 154.052 33.192 154.052 34.136C154.052 35.08 154.372 35.848 155.012 36.44C155.652 37.016 156.468 37.304 157.46 37.304ZM180.673 34.592C180.673 34.64 180.649 34.976 180.601 35.6H170.833C171.009 36.4 171.425 37.032 172.081 37.496C172.737 37.96 173.553 38.192 174.529 38.192C175.201 38.192 175.793 38.096 176.305 37.904C176.833 37.696 177.321 37.376 177.769 36.944L179.761 39.104C178.545 40.496 176.769 41.192 174.433 41.192C172.977 41.192 171.689 40.912 170.569 40.352C169.449 39.776 168.585 38.984 167.977 37.976C167.369 36.968 167.065 35.824 167.065 34.544C167.065 33.28 167.361 32.144 167.953 31.136C168.561 30.112 169.385 29.32 170.425 28.76C171.481 28.184 172.657 27.896 173.953 27.896C175.217 27.896 176.361 28.168 177.385 28.712C178.409 29.256 179.209 30.04 179.785 31.064C180.377 32.072 180.673 33.248 180.673 34.592ZM173.977 30.728C173.129 30.728 172.417 30.968 171.841 31.448C171.265 31.928 170.913 32.584 170.785 33.416H177.145C177.017 32.6 176.665 31.952 176.089 31.472C175.513 30.976 174.809 30.728 173.977 30.728ZM190.226 24.2H197.858C199.682 24.2 201.29 24.552 202.682 25.256C204.09 25.944 205.178 26.92 205.946 28.184C206.73 29.448 207.122 30.92 207.122 32.6C207.122 34.28 206.73 35.752 205.946 37.016C205.178 38.28 204.09 39.264 202.682 39.968C201.29 40.656 199.682 41 197.858 41H190.226V24.2ZM197.666 37.808C199.346 37.808 200.682 37.344 201.674 36.416C202.682 35.472 203.186 34.2 203.186 32.6C203.186 31 202.682 29.736 201.674 28.808C200.682 27.864 199.346 27.392 197.666 27.392H194.114V37.808H197.666ZM222.439 34.592C222.439 34.64 222.415 34.976 222.367 35.6H212.599C212.775 36.4 213.191 37.032 213.847 37.496C214.503 37.96 215.319 38.192 216.295 38.192C216.967 38.192 217.559 38.096 218.071 37.904C218.599 37.696 219.087 37.376 219.535 36.944L221.527 39.104C220.311 40.496 218.535 41.192 216.199 41.192C214.743 41.192 213.455 40.912 212.335 40.352C211.215 39.776 210.351 38.984 209.743 37.976C209.135 36.968 208.831 35.824 208.831 34.544C208.831 33.28 209.127 32.144 209.719 31.136C210.327 30.112 211.151 29.32 212.191 28.76C213.247 28.184 214.423 27.896 215.719 27.896C216.983 27.896 218.127 28.168 219.151 28.712C220.175 29.256 220.975 30.04 221.551 31.064C222.143 32.072 222.439 33.248 222.439 34.592ZM215.743 30.728C214.895 30.728 214.183 30.968 213.607 31.448C213.031 31.928 212.679 32.584 212.551 33.416H218.911C218.783 32.6 218.431 31.952 217.855 31.472C217.279 30.976 216.575 30.728 215.743 30.728ZM231.171 41.192C229.795 41.192 228.555 40.912 227.451 40.352C226.363 39.776 225.507 38.984 224.883 37.976C224.275 36.968 223.971 35.824 223.971 34.544C223.971 33.264 224.275 32.12 224.883 31.112C225.507 30.104 226.363 29.32 227.451 28.76C228.555 28.184 229.795 27.896 231.171 27.896C232.531 27.896 233.715 28.184 234.723 28.76C235.747 29.32 236.491 30.128 236.955 31.184L234.051 32.744C233.379 31.56 232.411 30.968 231.147 30.968C230.171 30.968 229.363 31.288 228.723 31.928C228.083 32.568 227.763 33.44 227.763 34.544C227.763 35.648 228.083 36.52 228.723 37.16C229.363 37.8 230.171 38.12 231.147 38.12C232.427 38.12 233.395 37.528 234.051 36.344L236.955 37.928C236.491 38.952 235.747 39.752 234.723 40.328C233.715 40.904 232.531 41.192 231.171 41.192ZM245.091 41.192C243.731 41.192 242.507 40.912 241.419 40.352C240.347 39.776 239.507 38.984 238.899 37.976C238.291 36.968 237.987 35.824 237.987 34.544C237.987 33.264 238.291 32.12 238.899 31.112C239.507 30.104 240.347 29.32 241.419 28.76C242.507 28.184 243.731 27.896 245.091 27.896C246.451 27.896 247.667 28.184 248.739 28.76C249.811 29.32 250.651 30.104 251.259 31.112C251.867 32.12 252.171 33.264 252.171 34.544C252.171 35.824 251.867 36.968 251.259 37.976C250.651 38.984 249.811 39.776 248.739 40.352C247.667 40.912 246.451 41.192 245.091 41.192ZM245.091 38.12C246.051 38.12 246.835 37.8 247.443 37.16C248.067 36.504 248.379 35.632 248.379 34.544C248.379 33.456 248.067 32.592 247.443 31.952C246.835 31.296 246.051 30.968 245.091 30.968C244.131 30.968 243.339 31.296 242.715 31.952C242.091 32.592 241.779 33.456 241.779 34.544C241.779 35.632 242.091 36.504 242.715 37.16C243.339 37.8 244.131 38.12 245.091 38.12ZM258.249 29.792C258.697 29.168 259.297 28.696 260.049 28.376C260.817 28.056 261.697 27.896 262.689 27.896V31.352C262.273 31.32 261.993 31.304 261.849 31.304C260.777 31.304 259.937 31.608 259.329 32.216C258.721 32.808 258.417 33.704 258.417 34.904V41H254.673V28.088H258.249V29.792Z" fill="black"/>
<path d="M17.896 19.8C20.128 19.8 22.06 20.172 23.692 20.916C25.348 21.66 26.62 22.716 27.508 24.084C28.396 25.452 28.84 27.072 28.84 28.944C28.84 30.792 28.396 32.412 27.508 33.804C26.62 35.172 25.348 36.228 23.692 36.972C22.06 37.692 20.128 38.052 17.896 38.052H12.82V45H6.988V19.8H17.896ZM17.572 33.3C19.324 33.3 20.656 32.928 21.568 32.184C22.48 31.416 22.936 30.336 22.936 28.944C22.936 27.528 22.48 26.448 21.568 25.704C20.656 24.936 19.324 24.552 17.572 24.552H12.82V33.3H17.572ZM33.0036 19.8H44.4516C47.1876 19.8 49.5996 20.328 51.6876 21.384C53.7996 22.416 55.4316 23.88 56.5836 25.776C57.7596 27.672 58.3476 29.88 58.3476 32.4C58.3476 34.92 57.7596 37.128 56.5836 39.024C55.4316 40.92 53.7996 42.396 51.6876 43.452C49.5996 44.484 47.1876 45 44.4516 45H33.0036V19.8ZM44.1636 40.212C46.6836 40.212 48.6876 39.516 50.1756 38.124C51.6876 36.708 52.4436 34.8 52.4436 32.4C52.4436 30 51.6876 28.104 50.1756 26.712C48.6876 25.296 46.6836 24.588 44.1636 24.588H38.8356V40.212H44.1636Z" fill="white"/>
</svg>
